# xmcd
#
# Track frame offsets:
#	150
#	12407
#	22395
#	36082
#	49275
#	66852
#	77282
#	91385
#	113220
#	126092
#	141300
#	153957
#	171962
#	187930
#	203887
#	229647
#	244662
#	269552
#	284740
#
# Disc length: 4098 seconds
#
# Revision: 1
# Processed by: cddbd v1.5.1PL0 Copyright (c) Steve Scherf et al.
# Submitted via: audiograbber 1.83.01
#
DISCID=12100013
DTITLE=Captain Beefheart - Unconditionally Guaranteed
DYEAR=1974
DGENRE=
TTITLE0=Upon The My-o-my
TTITLE1=Sugar Bowl
TTITLE2=New Electric Ride
TTITLE3=Magic Be
TTITLE4=Happy Love Song
TTITLE5=Full Moon, Hot Sun
TTITLE6=I Got Love On My Mind
TTITLE7=This Is The Day
TTITLE8=Lazy Music
TTITLE9=Peaches
TTITLE10=Party Of Special Things To Do
TTITLE11=Some Old Blues
TTITLE12=Observatory Crest
TTITLE13=Pompadour Swamp
TTITLE14=Captain's Holiday
TTITLE15=Rock 'n Roll's Evil Doll
TTITLE16=Further Than We've Gone
TTITLE17=Twist Ah Luck
TTITLE18=Bluejeans And Moonbeams
EXTD=
EXTT0=
EXTT1=
EXTT2=
EXTT3=
EXTT4=
EXTT5=
EXTT6=
EXTT7=
EXTT8=
EXTT9=
EXTT10=
EXTT11=
EXTT12=
EXTT13=
EXTT14=
EXTT15=
EXTT16=
EXTT17=
EXTT18=
PLAYORDER=
